<svg xmlns="http://www.w3.org/2000/svg" width="56.099" height="46.056" viewBox="0 0 56.099 46.056">
  <g id="Group_632" data-name="Group 632" transform="translate(-838.065 -2501)">
    <path id="Path_191" data-name="Path 191" d="M207.1,77.709a3.778,3.778,0,0,0-3.883,3.634v1.88a13.2,13.2,0,0,0-9.112,12.549,90.98,90.98,0,0,1-.253,11.7c-.512,3.92-1.757,7.265-4.536,9.095a1.275,1.275,0,0,0,.7,2.339h10.908a6.352,6.352,0,0,0,12.348,0h10.908a1.275,1.275,0,0,0,.7-2.339c-2.717-1.791-3.973-5.167-4.5-9.11a89.064,89.064,0,0,1-.291-11.684,13.2,13.2,0,0,0-9.112-12.549v-1.88a3.778,3.778,0,0,0-3.883-3.634Zm0,2.55a1.226,1.226,0,0,1,1.333,1.084v1.345a12.845,12.845,0,0,0-2.666,0V81.343A1.226,1.226,0,0,1,207.1,80.259Zm0,4.91a10.547,10.547,0,0,1,10.445,10.6,88.505,88.505,0,0,0,.313,12.02,17.744,17.744,0,0,0,3.113,8.563H193.247a17.451,17.451,0,0,0,3.134-8.554,89.956,89.956,0,0,0,.274-12.029,10.546,10.546,0,0,1,10.445-10.6Zm-3.536,33.738h7.073a3.863,3.863,0,0,1-7.073,0Z" transform="translate(659.015 2423.291)" fill="#fff"/>
    <path id="Path_192" data-name="Path 192" d="M191.01,223.619a1.276,1.276,0,0,0-.967.469,8.563,8.563,0,0,0,0,10.675,1.275,1.275,0,1,0,1.953-1.64,6.02,6.02,0,0,1,0-7.4,1.275,1.275,0,0,0-.986-2.109Z" transform="translate(659.518 2293.991)" fill="#fff"/>
    <path id="Path_193" data-name="Path 193" d="M149.493,188.659a1.275,1.275,0,0,0-.97.461,14.794,14.794,0,0,0,0,18.648h0a1.275,1.275,0,1,0,1.939-1.656,12.247,12.247,0,0,1,0-15.338,1.275,1.275,0,0,0-.969-2.117Z" transform="translate(697.588 2324.971)" fill="#fff"/>
    <path id="Path_194" data-name="Path 194" d="M109.247,152.26a1.274,1.274,0,0,0-.966.47,21.671,21.671,0,0,0,0,26.913,1.275,1.275,0,1,0,1.954-1.638,19.124,19.124,0,0,1,0-23.638h0a1.275,1.275,0,0,0-.989-2.107Z" transform="translate(734.469 2357.227)" fill="#fff"/>
    <path id="Path_195" data-name="Path 195" d="M476.851,223.619a1.275,1.275,0,0,0-.947,2.109,6.018,6.018,0,0,1,0,7.4,1.275,1.275,0,1,0,1.953,1.64,8.563,8.563,0,0,0,0-10.675,1.275,1.275,0,0,0-1.005-.469Z" transform="translate(404.818 2293.991)" fill="#fff"/>
    <path id="Path_196" data-name="Path 196" d="M507.194,188.667a1.275,1.275,0,0,0-.931,2.116,12.247,12.247,0,0,1,0,15.338,1.275,1.275,0,1,0,1.94,1.656,14.794,14.794,0,0,0,0-18.648h0a1.276,1.276,0,0,0-1.009-.461Z" transform="translate(377.921 2324.964)" fill="#fff"/>
    <path id="Path_197" data-name="Path 197" d="M536.613,152.255a1.275,1.275,0,0,0-.951,2.107,19.124,19.124,0,0,1,0,23.638h0a1.275,1.275,0,1,0,1.954,1.638,21.67,21.67,0,0,0,0-26.913,1.274,1.274,0,0,0-1-.47Z" transform="translate(351.863 2357.231)" fill="#fff"/>
  </g>
</svg>
