<svg xmlns="http://www.w3.org/2000/svg" width="51.129" height="47.003" viewBox="0 0 51.129 47.003">
  <g id="Group_634" data-name="Group 634" transform="translate(-19070.786 -10386)">
    <path id="Path_482" data-name="Path 482" d="M188.567,129.926H140.076v-4.531h1.217a.879.879,0,1,0,0-1.759h-1.217v-4.125h1.217a.879.879,0,1,0,0-1.759h-1.217v-4.125h1.217a.879.879,0,1,0,0-1.759h-1.217v-4.125h1.217a.879.879,0,1,0,0-1.759h-1.217v-4.125h1.217a.879.879,0,1,0,0-1.759h-1.217V95.974h1.217a.879.879,0,1,0,0-1.759h-1.217V90.09h1.217a.879.879,0,1,0,0-1.759h-1.217V85.423a.879.879,0,1,0-1.759,0v45.245a.9.9,0,0,0,.879.879h49.37a.9.9,0,0,0,.879-.879.885.885,0,0,0-.879-.742Z" transform="translate(18932.469 10301.456)" fill="#fff"/>
    <path id="Path_483" data-name="Path 483" d="M230.3,191.52a1.973,1.973,0,0,0-1.352.609l-13.188,13.323-8.589-6.56a2.544,2.544,0,0,0-3.179.2l-12.579,12.85a3.607,3.607,0,0,0-1.014,2.435v5.749a2.28,2.28,0,0,0,2.3,2.3h36.926a2.253,2.253,0,0,0,2.164-1.623,1.98,1.98,0,0,0,.135-.609V193.414a1.647,1.647,0,0,0-1.623-1.894Zm-37.535,29.554a.924.924,0,0,1-.947-.947v-2.3l3.246,3.246Zm3.72,0-4.667-4.666v-2.029a2.721,2.721,0,0,1,.474-1.353l7.98,7.98h-3.787Zm5.208,0-8.657-8.724,1.555-1.623,10.348,10.347Zm4.666,0-11.091-11.091,1.555-1.555,12.647,12.647Zm4.531,0L197.57,207.684l1.555-1.555,14.946,14.946Zm4.532,0L199.8,205.384l1.555-1.555L218.6,221.075Zm4.531,0-17.922-17.99,1.556-1.556,19.545,19.545Zm4.6,0-20.289-20.289.744-.744a1.017,1.017,0,0,1,.744-.27.943.943,0,0,1,.609.2l.744.609L227.6,221.074Zm6.087-.947a.924.924,0,0,1-.947.947h-.676l-17.584-17.584,3.923,3.382a.818.818,0,0,0,1.014-.067l.744-.744,13.526,13.526Zm0-2.029-12.782-12.782,1.555-1.555,11.227,11.226Zm0-4.6-10.551-10.483,1.353-1.352,9.2,9.2Zm0-4.058-8.522-8.522,1.352-1.352,7.169,7.169Zm0-4.125-6.493-6.493,1.285-1.352,5.14,5.14v2.705Zm0-4.058-4.464-4.464,1.352-1.352,3.111,3.111Zm0-4.125-2.435-2.367,1.623-1.623a.526.526,0,0,1,.406-.2c.067,0,.338.067.338.541v3.652Z" transform="translate(18887.27 10206.399)" fill="#fff"/>
    <path id="Path_484" data-name="Path 484" d="M257.532,105.736c0-.135-.067-.27-.067-.406-.067-.067-.135-.2-.2-.27-.135-.136-.2-.136-.271-.2l-.067-.067a.611.611,0,0,0-.338-.067l-4.125.067a1.036,1.036,0,0,0-.677.27.868.868,0,0,0-.27.676.983.983,0,0,0,1.014.947h1.758l-5,5-5.275,5.411-8.995-6.9a1.952,1.952,0,0,0-2.5.2c-.406.474-9.063,9.4-9.536,9.807a.928.928,0,0,0-.27.879,1.063,1.063,0,0,0,.676.744c.067,0,.135.067.27.067a1.036,1.036,0,0,0,.744-.338c.744-.744,9.265-9.468,9.536-9.739l8.995,6.831a1.952,1.952,0,0,0,2.5-.2l4.464-4.531,1.15-1.217.135-.135,4.531-4.667v1.894a1.036,1.036,0,0,0,.27.676.868.868,0,0,0,.676.27,1.2,1.2,0,0,0,.677-.27c.067-.135.2-.2.2-.338a.611.611,0,0,0,.067-.338Z" transform="translate(18857.297 10286.716)" fill="#fff"/>
  </g>
</svg>
