<svg xmlns="http://www.w3.org/2000/svg" width="32.176" height="43.18" viewBox="0 0 32.176 43.18">
  <path id="Path_883" data-name="Path 883" d="M157.172,28.174v-7.26c0-5.106,4.515-9.245,10.086-9.245s10.086,4.143,10.086,9.245v7.26h2.046a3.568,3.568,0,0,1,3.456,3.665V50.185a3.564,3.564,0,0,1-3.456,3.665H155.126a3.567,3.567,0,0,1-3.456-3.665V31.839a3.564,3.564,0,0,1,3.456-3.665Zm-1.834,3.668v18.34h23.842V31.842Zm18.34-3.668v-7.26c0-3-2.808-5.578-6.419-5.578s-6.419,2.572-6.419,5.578v7.26Zm-8.253,10.608a1.834,1.834,0,0,1,3.668,0v5.5a1.834,1.834,0,0,1-3.668,0Z" transform="translate(-151.17 -11.169)" fill="#fff" stroke="#fff" stroke-width="1"/>
</svg>
