<svg xmlns="http://www.w3.org/2000/svg" width="42.17" height="43.215" viewBox="0 0 42.17 43.215">
  <g id="Group_787" data-name="Group 787" transform="translate(-2109.579 -2268)">
    <path id="Path_11" data-name="Path 11" d="M216.993,148.153H192.615a4.432,4.432,0,0,1-4.432-4.432V118.235a4.432,4.432,0,0,1,4.432-4.432h24.378a2.216,2.216,0,1,0,0-4.432H192.615a8.865,8.865,0,0,0-8.865,8.865v25.486a8.865,8.865,0,0,0,8.865,8.865h24.378a2.216,2.216,0,1,0,0-4.432Z" transform="translate(1925.829 2158.63)" fill="#fff"/>
    <path id="Path_12" data-name="Path 12" d="M339.879,206.018l-8.255-8.289a2.218,2.218,0,0,0-3.136,3.136l4.466,4.5H317.219a2.216,2.216,0,1,0,0,4.432h15.735l-4.5,4.5a2.229,2.229,0,1,0,3.169,3.136l8.277-8.277a2.216,2.216,0,0,0,0-3.136Z" transform="translate(1811.198 2082.028)" fill="#fff"/>
  </g>
</svg>
