<svg xmlns="http://www.w3.org/2000/svg" width="34.148" height="51.747" viewBox="0 0 34.148 51.747">
  <g id="Group_645" data-name="Group 645" transform="translate(1487.074 -3023.797)">
    <path id="Path_896" data-name="Path 896" d="M199.175,18.124a1.885,1.885,0,0,0-.069-.2,1.929,1.929,0,0,0-.069-.188,2.232,2.232,0,0,0-.15-.251c0-.038-.044-.075-.069-.113h0a2.917,2.917,0,0,0-.232-.276l-.057-.063a3.819,3.819,0,0,0-.314-.283l-.038-.038c-.119-.094-.251-.188-.389-.283s-.3-.182-.452-.27-.327-.172-.5-.251l-.54-.232-.559-.214-.571-.188h-.057l-.64-.207h-.094l-.534-.138-.132-.031-.5-.119-.188-.044-.452-.094-.232-.044-.408-.075h-.082l-.44-.082-.308-.069c1.055-.558,1.733-1.186,1.733-1.984V3.261C192.834.68,186.121,0,182.158,0s-10.675.691-10.675,3.265v9.124c0,.823.684,1.45,1.739,1.928l-.314.069h-.144l-.251.044-.4.075-.4.082-.264.057-.5.113-.157.038-.571.144h-.075l-.628.176h-.051a10.329,10.329,0,0,0-3.315,1.519,4.045,4.045,0,0,0-.364.32l-.031.038a3.021,3.021,0,0,0-.27.314l-.057.088a2.349,2.349,0,0,0-.176.289.655.655,0,0,1-.063.176,1.936,1.936,0,0,0-.082.226,1.886,1.886,0,0,0-.05.433V46.858c0,3.2,8.59,4.885,17.073,4.885s17.073-1.676,17.073-4.885V18.545a1.874,1.874,0,0,0-.038-.421ZM182.153,1.5h2l.5.031h.408l.666.063h.182c3.284.345,5.212,1.1,5.438,1.57-.32.722-3.661,1.852-9.193,1.852s-8.96-1.161-9.18-1.733c.22-.622,3.567-1.783,9.18-1.783Zm-9.174,10.863V5.076c2.21,1.111,6.38,1.45,9.18,1.45s6.957-.345,9.168-1.45V12.36c-.22.628-3.567,1.783-9.18,1.783s-8.9-1.155-9.168-1.777Zm.628,3.416a.75.75,0,0,0,.264-.088,11.379,11.379,0,0,0,1.476-.571.719.719,0,0,0,.125-.088,33.681,33.681,0,0,0,6.65.628,33.685,33.685,0,0,0,6.656-.628.718.718,0,0,0,.132.094,9.005,9.005,0,0,0,2.21.741h.044c-.691.628-3.918,1.607-9.036,1.607s-8.4-.98-9.055-1.6Zm24.125,31.076c0,1.174-5.362,3.372-15.578,3.372s-15.566-2.2-15.566-3.372V20.68c2.832,1.809,9.224,2.75,15.566,2.75s12.734-.942,15.578-2.75ZM182.153,21.917c-10.222,0-15.566-2.2-15.566-3.378h0a.412.412,0,0,1,0-.119c.163-.421,1-1.068,2.888-1.676h.075l.471-.144.17-.05.44-.119.257-.107.408-.1.251-.057c.747,2.2,6.907,2.807,10.606,2.807s9.852-.628,10.606-2.807l.157.031.565.138h.094c2.976.8,4.157,1.72,4.157,2.21,0,1.174-5.362,3.372-15.578,3.372Z" transform="translate(-1652.14 3023.8)" fill="#fff"/>
    <path id="Path_897" data-name="Path 897" d="M343.355,93.592V90.729a.754.754,0,0,0-1.507,0v2.863a.754.754,0,1,0,1.507,0Z" transform="translate(-1812.588 2942.134)" fill="#fff"/>
    <path id="Path_898" data-name="Path 898" d="M380.051,94.334a.754.754,0,0,0,.754-.735V90.736a.753.753,0,1,0-1.507,0V93.6A.753.753,0,0,0,380.051,94.334Z" transform="translate(-1846.578 2942.128)" fill="#fff"/>
    <path id="Path_899" data-name="Path 899" d="M305.147,89.98a.754.754,0,0,0-.754.754V93.6a.753.753,0,1,0,1.507,0V90.734a.753.753,0,0,0-.753-.754Z" transform="translate(-1778.595 2942.13)" fill="#fff"/>
    <path id="Path_900" data-name="Path 900" d="M417.483,86.129a.753.753,0,0,0,.753-.753v-2.87a.753.753,0,1,0-1.507,0V85.35a.753.753,0,0,0,.754.778Z" transform="translate(-1880.551 2949.598)" fill="#fff"/>
    <path id="Path_901" data-name="Path 901" d="M267.711,81.555a.753.753,0,0,0-.753.753v2.845a.753.753,0,1,0,1.507,0V82.327a.753.753,0,0,0-.754-.772Z" transform="translate(-1744.617 2949.777)" fill="#fff"/>
    <path id="Path_902" data-name="Path 902" d="M264.8,306.095v4.163h-4.163a.754.754,0,0,0-.754.754v5.306a.754.754,0,0,0,.754.754H264.8v4.163a.754.754,0,0,0,.754.754h5.306a.754.754,0,0,0,.754-.754v-4.163h4.163a.753.753,0,0,0,.753-.754v-5.281a.753.753,0,0,0-.753-.754h-4.157v-4.188a.754.754,0,0,0-.754-.754H265.58a.754.754,0,0,0-.779.754Zm1.507,4.942v-4.188h3.8v4.188a.753.753,0,0,0,.754.753H275v3.8h-4.132a.753.753,0,0,0-.753.754v4.113h-3.806v-4.138a.753.753,0,0,0-.753-.753h-4.163v-3.8h4.188a.753.753,0,0,0,.728-.728Z" transform="translate(-1738.198 2746.668)" fill="#fff"/>
  </g>
</svg>
