<svg id="Group_793" data-name="Group 793" xmlns="http://www.w3.org/2000/svg" width="35.257" height="35.624" viewBox="0 0 35.257 35.624">
  <path id="Path_207" data-name="Path 207" d="M345.729,1.5a3.627,3.627,0,0,0-5.87,4.263l8.754,12.055-8.754,12.054a3.627,3.627,0,0,0,5.87,4.263l11.678-16.082a.4.4,0,0,0,0-.471Z" transform="translate(-322.227 -0.004)" fill="#fff"/>
  <path id="Path_208" data-name="Path 208" d="M91.128,17.582,79.449,1.5a3.627,3.627,0,0,0-5.87,4.263l8.754,12.055L73.579,29.872a3.628,3.628,0,0,0,5.87,4.263L91.128,18.054a.4.4,0,0,0,0-.471Z" transform="translate(-72.886 -0.006)" fill="#fff"/>
</svg>
