<svg xmlns="http://www.w3.org/2000/svg" width="47.893" height="47.893" viewBox="0 0 47.893 47.893">
  <g id="Group_644" data-name="Group 644" transform="translate(1185.25 -3235.75)">
    <path id="Path_885" data-name="Path 885" d="M103.076,3.653H97.547V.987a.987.987,0,1,0-1.975,0V3.653H78.491V.987a.987.987,0,1,0-1.975,0V3.653H70.987A.933.933,0,0,0,70,4.641V46.405a.933.933,0,0,0,.987.987h32.089a.933.933,0,0,0,.987-.987V4.641a.933.933,0,0,0-.987-.987Zm-.987,41.765H71.974v-31.6h30.114Zm0-33.57H71.974V5.628h4.542V8.293a.987.987,0,1,0,1.975,0V5.628H95.571V8.293a.987.987,0,0,0,1.975,0V5.628h4.542Z" transform="translate(-1255 3236)" fill="#fff" stroke="#fff" stroke-width="0.5"/>
    <path id="Path_886" data-name="Path 886" d="M131.649,270.309h21.82a.987.987,0,0,0,0-1.975h-21.82a.933.933,0,0,0-.987.987A.99.99,0,0,0,131.649,270.309Z" transform="translate(-1310.528 2990.375)" fill="#fff" stroke="#fff" stroke-width="0.5"/>
    <path id="Path_887" data-name="Path 887" d="M131.649,340.309h21.82a.987.987,0,0,0,0-1.975h-21.82a.933.933,0,0,0-.987.987A.99.99,0,0,0,131.649,340.309Z" transform="translate(-1310.528 2926.299)" fill="#fff" stroke="#fff" stroke-width="0.5"/>
    <path id="Path_888" data-name="Path 888" d="M131.649,411.469h21.82a.987.987,0,0,0,0-1.975h-21.82a.933.933,0,0,0-.987.987A.99.99,0,0,0,131.649,411.469Z" transform="translate(-1310.528 2861.161)" fill="#fff" stroke="#fff" stroke-width="0.5"/>
    <path id="Path_889" data-name="Path 889" d="M508.328,6.813h-2.468V5.134a.933.933,0,0,0-.987-.987h-.1V2.765a2.765,2.765,0,1,0-5.529,0V4.147h-.1a.933.933,0,0,0-.987.987V38.8a1.251,1.251,0,0,0,.1.592l2.765,5.233V46.4a.987.987,0,1,0,1.975,0V44.628l2.765-5.233a1.251,1.251,0,0,0,.1-.592V8.787h1.481v10.17a.987.987,0,0,0,1.975,0V7.8a.933.933,0,0,0-.987-.987Zm-7.109-4.048a.79.79,0,1,1,1.579,0V4.147h-1.58Zm.79,39.493-1.284-2.37h2.469Zm1.876-4.344h-3.752V6.121h3.752Z" transform="translate(-1646.923 3236)" fill="#fff" stroke="#fff" stroke-width="0.5"/>
  </g>
</svg>
