<svg xmlns="http://www.w3.org/2000/svg" width="51.427" height="51.427" viewBox="0 0 51.427 51.427">
  <g id="noun-screen-1993258" transform="translate(-126.002 -56.004)">
    <path id="Path_440" data-name="Path 440" d="M180.4,72.075a2.025,2.025,0,0,1-2.143-2.143V58.147a2.143,2.143,0,1,1,4.286,0V69.933a2.3,2.3,0,0,1-2.143,2.143Z" transform="translate(-46.261 0)" fill="#fff"/>
    <path id="Path_441" data-name="Path 441" d="M139.93,110.68H128.145a2.143,2.143,0,1,1,0-4.286h11.786a2.143,2.143,0,1,1,0,4.286Z" transform="translate(0 -44.606)" fill="#fff"/>
    <path id="Path_442" data-name="Path 442" d="M180.4,380.066a2.025,2.025,0,0,1-2.143-2.143V366.137a2.143,2.143,0,0,1,4.286,0v11.786A2.147,2.147,0,0,1,180.4,380.066Z" transform="translate(-46.261 -272.635)" fill="#fff"/>
    <path id="Path_443" data-name="Path 443" d="M139.93,420.55H128.145a2.143,2.143,0,0,1,0-4.286h11.786a2.143,2.143,0,1,1,0,4.286Z" transform="translate(0 -318.904)" fill="#fff"/>
    <path id="Path_444" data-name="Path 444" d="M486.545,72.075a2.025,2.025,0,0,1-2.143-2.143V58.147a2.143,2.143,0,1,1,4.286,0V69.933a2.147,2.147,0,0,1-2.143,2.143Z" transform="translate(-317.258 0)" fill="#fff"/>
    <path id="Path_445" data-name="Path 445" d="M447.921,110.68H436.135a2.143,2.143,0,0,1,0-4.286h11.786a2.025,2.025,0,0,1,2.143,2.143A2.147,2.147,0,0,1,447.921,110.68Z" transform="translate(-272.635 -44.606)" fill="#fff"/>
    <path id="Path_446" data-name="Path 446" d="M486.545,380.066a2.025,2.025,0,0,1-2.143-2.143V366.137a2.143,2.143,0,1,1,4.286,0v11.786A2.025,2.025,0,0,1,486.545,380.066Z" transform="translate(-317.258 -272.635)" fill="#fff"/>
    <path id="Path_447" data-name="Path 447" d="M447.921,420.55H436.135a2.143,2.143,0,0,1,0-4.286h11.786a2.025,2.025,0,0,1,2.143,2.143A2.147,2.147,0,0,1,447.921,420.55Z" transform="translate(-272.635 -318.904)" fill="#fff"/>
    <path id="Path_448" data-name="Path 448" d="M270.192,202.337H251.335a2.025,2.025,0,0,1-2.143-2.143V181.337a2.025,2.025,0,0,1,2.143-2.143h18.857a2.025,2.025,0,0,1,2.143,2.143v18.857A2.025,2.025,0,0,1,270.192,202.337Zm-16.714-4.286h14.571V183.48H253.478Z" transform="translate(-109.049 -109.049)" fill="#fff"/>
  </g>
</svg>
