<svg xmlns="http://www.w3.org/2000/svg" width="26.873" height="27.153" viewBox="0 0 26.873 27.153">
  <g id="Group_433" data-name="Group 433" transform="translate(-63.959 -999.473)">
    <path id="Path_207" data-name="Path 207" d="M348.126,1.142A2.765,2.765,0,0,1,352.6,4.391l-6.672,9.188,6.672,9.188a2.765,2.765,0,0,1-4.474,3.249l-8.9-12.258a.307.307,0,0,1,0-.359Z" transform="translate(-275.207 999.469)" fill="#cfcfcf"/>
    <path id="Path_208" data-name="Path 208" d="M72.945,13.4l8.9-12.258a2.765,2.765,0,0,1,4.474,3.249l-6.672,9.188,6.672,9.188a2.765,2.765,0,0,1-4.475,3.249l-8.9-12.258a.307.307,0,0,1,0-.359Z" transform="translate(3.983 999.467)" fill="#cfcfcf"/>
  </g>
</svg>
