<svg xmlns="http://www.w3.org/2000/svg" width="50.322" height="50.322" viewBox="0 0 50.322 50.322">
  <path id="Path_903" data-name="Path 903" d="M179.691,66.824h-36.4a6.468,6.468,0,0,0-6.462,6.462v36.4a6.468,6.468,0,0,0,6.462,6.462h36.4a6.468,6.468,0,0,0,6.462-6.462v-36.4a6.468,6.468,0,0,0-6.462-6.462Zm3.425,42.86a3.427,3.427,0,0,1-3.425,3.425h-36.4a3.428,3.428,0,0,1-3.425-3.425v-36.4a3.428,3.428,0,0,1,3.425-3.425h36.4a3.427,3.427,0,0,1,3.425,3.425ZM144.874,80.966a1.518,1.518,0,0,1,1.518-1.518h15.47l1.094-2.919h0a1.518,1.518,0,0,1,2.843,0c1.032,2.747,1.785,4.758,2.328,6.215l.865-2.309h0a1.519,1.519,0,0,1,1.417-.986h6.175a1.518,1.518,0,0,1,0,3.037h-5.113l-1.893,5.051a1.518,1.518,0,0,1-.911.953,1.981,1.981,0,0,1-.692.148,1.027,1.027,0,0,1-.833-.422,1.5,1.5,0,0,1-.431-.618l-.012-.033-.046-.122c-.017-.056-.033-.113-.045-.165-.166-.381-.338-.839-.539-1.375l-1.7-4.522-.043.117a1.518,1.518,0,0,1-1.422.985H146.393a1.518,1.518,0,0,1-1.518-1.517Zm31.667,12.855H160.256a1.518,1.518,0,0,1-1.422-.987l-.4-1.1-3.109,8.3-.006.017-.062.163-.006.017h0a1.518,1.518,0,0,1-1.422.985,1.54,1.54,0,0,1-.437-.064c-.06-.015-.094-.027-.1-.028-.689-.258-.979-.567-.976-1.131L150,93.824h-3.606a1.518,1.518,0,0,1,0-3.037h4.656a1.519,1.519,0,0,1,1.417.985l1.347,3.6,3.185-8.5h0a1.515,1.515,0,0,1,2.839,0l1.461,3.909h15.244a1.518,1.518,0,1,1,0,3.037Zm-6.721,14.886h0a1.519,1.519,0,0,1-1.518,1.518H167.7a1.518,1.518,0,0,1,0-3.037h.607a1.518,1.518,0,0,1,1.518,1.514Zm9.682,0h0a1.518,1.518,0,0,1-1.518,1.518h-5.226a1.518,1.518,0,1,1,0-3.037h5.226A1.518,1.518,0,0,1,179.5,108.7Z" transform="translate(-136.331 -66.324)" fill="#fff" stroke="#fff" stroke-width="1"/>
</svg>
