<svg xmlns="http://www.w3.org/2000/svg" width="45.996" height="45.996" viewBox="0 0 45.996 45.996">
  <path id="Path_996" data-name="Path 996" d="M180.991,88a1.7,1.7,0,0,0-.379.022h0a1.878,1.878,0,0,0-1.792,1.37,13.451,13.451,0,0,1-1.2,3.1c-.467.789-.911,1.122-1.138,1.18a2.485,2.485,0,0,1-1.56-.485,13.4,13.4,0,0,1-2.55-2.108h0a1.879,1.879,0,0,0-2.235-.358,23.11,23.11,0,0,0-5.691,4.3h0a1.88,1.88,0,0,0-.274,2.235,13.416,13.416,0,0,1,1.328,3.036,2.409,2.409,0,0,1,.021,1.623,2.372,2.372,0,0,1-1.412.759,13.46,13.46,0,0,1-3.309.316h0a1.878,1.878,0,0,0-1.813,1.349,22.906,22.906,0,0,0-.991,6.661,2.579,2.579,0,0,0,.021.4h0a1.879,1.879,0,0,0,1.37,1.792,13.629,13.629,0,0,1,3.1,1.2c.786.461,1.1.9,1.159,1.117a2.446,2.446,0,0,1-.485,1.539,13.507,13.507,0,0,1-2.108,2.572,1.877,1.877,0,0,0-.358,2.213,23.039,23.039,0,0,0,4.3,5.691h0a1.878,1.878,0,0,0,2.235.3,13.592,13.592,0,0,1,3.057-1.349,1.575,1.575,0,0,1,2.4,1.412,13.487,13.487,0,0,1,.3,3.309A1.876,1.876,0,0,0,174.308,133a23.049,23.049,0,0,0,6.682.991c.292,0,.388-.022.316-.021h0a1.879,1.879,0,0,0,1.792-1.37,13.441,13.441,0,0,1,1.223-3.1c.47-.79.911-1.1,1.138-1.159a2.412,2.412,0,0,1,1.56.464,13.566,13.566,0,0,1,2.551,2.129h0a1.879,1.879,0,0,0,2.235.358,23.084,23.084,0,0,0,5.712-4.321,1.88,1.88,0,0,0,.274-2.235,13.532,13.532,0,0,1-1.349-3.056,1.576,1.576,0,0,1,1.413-2.4,13.5,13.5,0,0,1,3.33-.316h0a1.878,1.878,0,0,0,1.834-1.328,23.043,23.043,0,0,0,.969-6.64,1.178,1.178,0,0,0-.022-.358h0a1.879,1.879,0,0,0-1.37-1.792,13.465,13.465,0,0,1-3.1-1.2c-.786-.467-1.1-.908-1.159-1.138a2.4,2.4,0,0,1,.464-1.56,13.358,13.358,0,0,1,2.108-2.55h0a1.878,1.878,0,0,0,.358-2.234,23.043,23.043,0,0,0-4.3-5.691,1.877,1.877,0,0,0-2.234-.274,13.513,13.513,0,0,1-3.057,1.328,1.557,1.557,0,0,1-2.382-1.413,13.334,13.334,0,0,1-.316-3.309h0a1.878,1.878,0,0,0-1.349-1.834A22.906,22.906,0,0,0,180.99,88Zm.885,3.816a19.208,19.208,0,0,1,3.394.464,13.834,13.834,0,0,0,.379,2.783,5.193,5.193,0,0,0,6.977,4.11,13.8,13.8,0,0,0,2.529-1.1,19.163,19.163,0,0,1,2.15,2.846,13.806,13.806,0,0,0-1.749,2.129,5.737,5.737,0,0,0-.843,4.385h0v.021a5.75,5.75,0,0,0,2.867,3.415,13.754,13.754,0,0,0,2.593,1.033,19.214,19.214,0,0,1-.464,3.351,14.078,14.078,0,0,0-2.8.4,5.167,5.167,0,0,0-4.089,6.977,13.863,13.863,0,0,0,1.1,2.529,19.2,19.2,0,0,1-2.867,2.15,13.774,13.774,0,0,0-2.108-1.728,5.178,5.178,0,0,0-7.842,2,13.855,13.855,0,0,0-1.033,2.593,19.168,19.168,0,0,1-3.478-.506,13.751,13.751,0,0,0-.274-2.74,5.149,5.149,0,0,0-6.977-4.089,13.72,13.72,0,0,0-2.529,1.1,19.186,19.186,0,0,1-2.15-2.867,13.894,13.894,0,0,0,1.749-2.129,5.158,5.158,0,0,0-2.024-7.8,13.789,13.789,0,0,0-2.572-1.012,19.137,19.137,0,0,1,.506-3.541,13.783,13.783,0,0,0,2.74-.274,5.79,5.79,0,0,0,3.71-2.508,5.708,5.708,0,0,0,.379-4.448,13.8,13.8,0,0,0-1.1-2.529,19.23,19.23,0,0,1,2.846-2.15,13.862,13.862,0,0,0,2.129,1.749,5.183,5.183,0,0,0,7.821-2.024,13.734,13.734,0,0,0,1.033-2.593Zm-.885,9.317A9.865,9.865,0,1,0,190.857,111,9.894,9.894,0,0,0,180.991,101.132Zm0,3.752A6.113,6.113,0,1,1,174.878,111a6.087,6.087,0,0,1,6.113-6.113Z" transform="translate(-157.993 -87.999)" fill="#fff"/>
</svg>
