<svg xmlns="http://www.w3.org/2000/svg" width="51.597" height="51.598" viewBox="0 0 51.597 51.598">
  <path id="Union_14" data-name="Union 14" d="M36.641-1202.4a5.528,5.528,0,0,1-3.909-1.62,5.528,5.528,0,0,1-1.62-3.909v-11.056a1.842,1.842,0,0,1,.922-1.6,1.84,1.84,0,0,1,1.842,0,1.841,1.841,0,0,1,.921,1.6v11.056a1.847,1.847,0,0,0,.54,1.3,1.847,1.847,0,0,0,1.3.54H55.069a1.847,1.847,0,0,0,1.3-.54,1.847,1.847,0,0,0,.54-1.3v-18.427a1.848,1.848,0,0,0-.54-1.3,1.848,1.848,0,0,0-1.3-.539H44.012a1.841,1.841,0,0,1-1.6-.921,1.842,1.842,0,0,1,0-1.843,1.843,1.843,0,0,1,1.6-.921H55.069a5.528,5.528,0,0,1,3.909,1.62,5.528,5.528,0,0,1,1.62,3.909v18.427a5.528,5.528,0,0,1-1.62,3.909,5.528,5.528,0,0,1-3.909,1.62Zm14.742-7.371a1.847,1.847,0,0,1-.963-.276,1.839,1.839,0,0,1-.676-.739l-.416-.829H42.382l-.415.829a1.84,1.84,0,0,1-1.522.892,1.842,1.842,0,0,1-1.574-.8,1.844,1.844,0,0,1-.184-1.754l5.529-11.056a1.843,1.843,0,0,1,.981-.881,1.839,1.839,0,0,1,1.317,0,1.843,1.843,0,0,1,.981.881l5.529,11.056a1.845,1.845,0,0,1,.1,1.4,1.843,1.843,0,0,1-.916,1.067,1.713,1.713,0,0,1-.812.2Zm-3.9-5.529-1.626-3.244-1.626,3.244Zm-32.952-9.214a5.531,5.531,0,0,1-3.91-1.619A5.53,5.53,0,0,1,9-1230.044v-18.428a5.531,5.531,0,0,1,1.619-3.909,5.532,5.532,0,0,1,3.91-1.619H32.956a5.531,5.531,0,0,1,3.909,1.619,5.531,5.531,0,0,1,1.619,3.909v18.428a5.53,5.53,0,0,1-1.619,3.909,5.531,5.531,0,0,1-3.909,1.619Zm-1.3-25.258a1.844,1.844,0,0,0-.54,1.3v18.428a1.845,1.845,0,0,0,.54,1.3,1.846,1.846,0,0,0,1.3.54H32.956a1.844,1.844,0,0,0,1.3-.54,1.841,1.841,0,0,0,.54-1.3v-18.428a1.84,1.84,0,0,0-.54-1.3,1.839,1.839,0,0,0-1.3-.54H14.529A1.841,1.841,0,0,0,13.225-1249.775Zm5.394,17.188a1.842,1.842,0,0,1-.306-1.662,1.84,1.84,0,0,1,1.178-1.212,1.841,1.841,0,0,1,1.671.258,14.458,14.458,0,0,0,5.694-4.054H18.214a1.844,1.844,0,0,1-1.6-.921,1.846,1.846,0,0,1,0-1.843,1.844,1.844,0,0,1,1.6-.921H21.9v-1.843a1.844,1.844,0,0,1,.921-1.6,1.846,1.846,0,0,1,1.843,0,1.844,1.844,0,0,1,.921,1.6v1.843H29.27a1.843,1.843,0,0,1,1.437.7c1.529,1.842.2,4.773-3.685,7.85a17.323,17.323,0,0,1-3.906,2.506,5.875,5.875,0,0,1-2.138.369l-.111,0A2.891,2.891,0,0,1,18.619-1232.587Z" transform="translate(-9 1254)" fill="#0a78e8"/>
</svg>
