<svg xmlns="http://www.w3.org/2000/svg" width="20.746" height="20.647" viewBox="0 0 20.746 20.647">
  <g id="noun-edit-4513822" transform="translate(-122.5 -53.176)">
    <path id="Path_705" data-name="Path 705" d="M256.817,53.875a2.386,2.386,0,0,0-3.374,0l-1.688,1.687-7,7a2.386,2.386,0,0,0-.628,1.11l-.7,2.784a1.59,1.59,0,0,0,1.536,1.979,1.607,1.607,0,0,0,.391-.048l2.784-.7a2.386,2.386,0,0,0,1.109-.628l8.686-8.686a2.386,2.386,0,0,0,0-3.374Zm-8.689,12.061a.8.8,0,0,1-.368.208l-2.784.7.7-2.784h0a.8.8,0,0,1,.21-.37l6.437-6.436,2.249,2.249Z" transform="translate(-115.389)" fill="#fff"/>
    <path id="Path_706" data-name="Path 706" d="M126.477,106.587h11.134a3.981,3.981,0,0,0,3.977-3.977V95.143a.8.8,0,1,0-1.591,0v7.468A2.386,2.386,0,0,1,137.611,105H126.477a2.386,2.386,0,0,1-2.386-2.386V91.477a2.386,2.386,0,0,1,2.386-2.386h7.667a.8.8,0,1,0,0-1.591h-7.667a3.981,3.981,0,0,0-3.977,3.977v11.134a3.981,3.981,0,0,0,3.977,3.977Z" transform="translate(0 -32.764)" fill="#fff"/>
  </g>
</svg>
