<svg xmlns="http://www.w3.org/2000/svg" width="28.378" height="28.378" viewBox="0 0 28.378 28.378">
  <path id="noun-filters-3629719" d="M84.189,19.865a4.259,4.259,0,0,1,4.022,2.859l.069-.012.165-.009h8.513a1.419,1.419,0,0,1,.165,2.828l-.165.009H88.445a1.444,1.444,0,0,1-.236-.019,4.258,4.258,0,0,1-8.043,0l-.069.012-.165.01H71.419a1.419,1.419,0,0,1-.166-2.828l.165-.01h8.513a1.444,1.444,0,0,1,.236.019,4.258,4.258,0,0,1,4.021-2.857Zm0,2.838a1.419,1.419,0,1,0,1.419,1.419A1.419,1.419,0,0,0,84.189,22.7ZM74.256,9.932a4.259,4.259,0,0,1,4.022,2.859l.069-.012.165-.01H96.959a1.419,1.419,0,0,1,.165,2.828l-.165.01H78.513a1.444,1.444,0,0,1-.236-.019,4.257,4.257,0,1,1-4.021-5.656Zm0,2.838a1.419,1.419,0,1,0,1.419,1.419A1.419,1.419,0,0,0,74.256,12.77ZM89.864,0a4.259,4.259,0,0,1,4.022,2.859l.069-.012.165-.01h2.838a1.419,1.419,0,0,1,.165,2.828l-.165.01H94.121a1.444,1.444,0,0,1-.236-.019,4.258,4.258,0,0,1-8.043,0l-.069.012-.165.01H71.419a1.419,1.419,0,0,1-.166-2.828l.165-.01H85.608a1.444,1.444,0,0,1,.236.019A4.258,4.258,0,0,1,89.864,0Zm0,2.838a1.419,1.419,0,1,0,1.419,1.419A1.419,1.419,0,0,0,89.864,2.838Z" transform="translate(-70 0)" fill="#cfcfcf"/>
</svg>
