<svg xmlns="http://www.w3.org/2000/svg" width="26.912" height="34.354" viewBox="0 0 26.912 34.354">
  <g id="Group_663" data-name="Group 663" transform="translate(-1736.338 -117.322)">
    <path id="noun-add-note-2655920" d="M177.417,48.45H182.7v-.891a.88.88,0,1,1,1.761,0v.891h4.4a.886.886,0,0,1,.88.891V79.631a.886.886,0,0,1-.88.891H164.21a.886.886,0,0,1-.88-.891V49.341a.886.886,0,0,1,.88-.891h4.4v-.891a.881.881,0,1,1,1.761,0v.891h5.282v-.891a.88.88,0,1,1,1.761,0Zm-1.761,1.782h-5.282V52.9a.881.881,0,1,1-1.761,0V50.231h-3.521v28.51h22.89V50.231H184.46V52.9a.88.88,0,1,1-1.761,0V50.231h-5.282V52.9a.88.88,0,1,1-1.761,0Z" transform="translate(1573.258 70.904)" fill="#fff" stroke="#fff" stroke-width="0.5"/>
    <path id="Path_922" data-name="Path 922" d="M90.5,27.3V25.674a.754.754,0,0,1,.765-.749h3.67v-3.67a.754.754,0,0,1,.749-.765H97.3a.757.757,0,0,1,.765.765v3.67h3.67a.764.764,0,0,1,.765.749V27.3a.767.767,0,0,1-.765.765h-3.67v3.67a.767.767,0,0,1-.765.765H95.679a.764.764,0,0,1-.749-.765V28.06h-3.67A.757.757,0,0,1,90.5,27.3Z" transform="translate(1653.174 110.006)" fill="#fff" fill-rule="evenodd"/>
  </g>
</svg>
