<svg xmlns="http://www.w3.org/2000/svg" width="53.271" height="58.285" viewBox="0 0 53.271 58.285">
  <path id="Union_13" data-name="Union 13" d="M0,58.285V57.106A26.71,26.71,0,0,1,19.486,31.442l.253-.07,1.283.217.25.219c1.6,1.4,2.962,1.85,5.6,1.85,2.835,0,4.016-.575,5.452-1.784l.252-.212,1.28-.2.253.074A26.766,26.766,0,0,1,53.27,57.105v1.179Zm50.885-2.358A24.416,24.416,0,0,0,33.7,33.87l-.115.018a8.891,8.891,0,0,1-5.433,2.084V55.927Zm-48.5,0H25.8V35.986A8.971,8.971,0,0,1,19.982,33.8l-.112-.019A24.349,24.349,0,0,0,2.387,55.927Zm33.064-8a.749.749,0,0,1-.737-.759V44.925H32.472a.75.75,0,0,1-.759-.737V42.763a.749.749,0,0,1,.759-.738h2.242V39.784a.749.749,0,0,1,.737-.759h1.425a.749.749,0,0,1,.737.759v2.242h2.242a.75.75,0,0,1,.759.738v1.425a.749.749,0,0,1-.759.737H37.613v2.242a.748.748,0,0,1-.737.759Zm-22.587-34.1C12.864,4.912,17.754,0,26.635,0S40.4,4.912,40.4,13.828c0,10.028-6.178,18.185-13.77,18.185S12.864,23.856,12.864,13.828Zm2.358,0c0,8.728,5.12,15.829,11.413,15.829s11.413-7.1,11.413-15.829c0-7.611-3.84-11.471-11.413-11.471S15.222,6.216,15.222,13.827Z" fill="#cfcfcf"/>
</svg>
