<svg xmlns="http://www.w3.org/2000/svg" width="53.087" height="59.397" viewBox="0 0 53.087 59.397">
  <path id="Union_11" data-name="Union 11" d="M52.187,59.4H.9a.9.9,0,0,1-.9-.9V46.9a6.791,6.791,0,0,1,4.7-6.474l10.831-4.084a5.009,5.009,0,0,0,3.5-4.775V29.507a22.869,22.869,0,0,1-4.168-13.685l-.778-3.62a.766.766,0,0,1-.015-.091,9.827,9.827,0,0,1,2.08-7.72C19.363.6,25.135.092,26.26.028c3.1-.206,5.565.734,6.973,2.654l.684.931a.241.241,0,0,0,.194.1,5.271,5.271,0,0,1,5.174,6.278L38.207,15.54a.778.778,0,0,1,.022.183c0,5.529-1.624,10.483-4.175,13.789v2.051a4.993,4.993,0,0,0,1.483,3.561.9.9,0,0,1,.174.163,5.009,5.009,0,0,0,1.8,1.037l10.909,4.113A6.773,6.773,0,0,1,53.087,46.9V58.5a.9.9,0,0,1-.9.9ZM5.3,42.121A5.008,5.008,0,0,0,1.8,46.9V57.6H51.287V46.9a4.994,4.994,0,0,0-3.46-4.762l-3.569-1.345V46.7a4.536,4.536,0,1,1-1.8,0V40.11l-5.54-2.089q-.275-.089-.539-.2l1.644,7.258a.9.9,0,0,1-1.2,1.041l-4.57-1.727L27.507,55.258a.9.9,0,0,1-.823.539h0a.9.9,0,0,1-.823-.537L21.071,44.376l-4.58,1.744a.9.9,0,0,1-1.2-1.04L16.964,37.7a6.881,6.881,0,0,1-.836.333l-5.085,1.918V46.02a2.916,2.916,0,0,1,1.67,1.366L14.747,51a2.655,2.655,0,0,1-2.313,3.959.9.9,0,0,1,0-1.8.856.856,0,0,0,.745-1.276L11.146,48.27a1.19,1.19,0,0,0-2.007,0L7.106,51.879a.856.856,0,0,0,.745,1.276.9.9,0,0,1,0,1.8A2.655,2.655,0,0,1,5.538,51l2.033-3.61A2.919,2.919,0,0,1,9.243,46.02V40.633Zm35.325,9.023a2.736,2.736,0,1,0,2.736-2.735A2.738,2.738,0,0,0,40.623,51.144ZM26.68,52.656l6.607-15.107a12.872,12.872,0,0,1-6.6,1.817h0a12.839,12.839,0,0,1-6.667-1.859l2.345,5.33c.01.02.019.041.027.062ZM35.9,43.845l-1.16-5.123-1.758,4.019ZM17.42,43.84l2.926-1.114L18.58,38.715Zm15.958-8.519a6.818,6.818,0,0,1-1.124-3.758v-.129a8.689,8.689,0,0,1-5.711,2.3,8.68,8.68,0,0,1-5.709-2.3v.131A6.8,6.8,0,0,1,19.8,35.169,11.074,11.074,0,0,0,33.377,35.321Zm-6.834-3.384a7.669,7.669,0,0,0,5.795-3.085.9.9,0,0,1,.273-.338,20.8,20.8,0,0,0,3.8-11.987,3.936,3.936,0,0,1-3.073-3.23l-.075-.468a2.617,2.617,0,0,0-2-2.118,20.868,20.868,0,0,0-9.517-.011,2.613,2.613,0,0,0-2.024,2.246l-.017.158a3.959,3.959,0,0,1-3.03,3.417,20.809,20.809,0,0,0,3.807,12,.9.9,0,0,1,.26.322A7.666,7.666,0,0,0,26.543,31.937ZM26.372,1.824c-1.005.057-6.111.5-8.845,3.73a8.087,8.087,0,0,0-1.67,6.316l.611,2.839a2.157,2.157,0,0,0,1.45-1.807l.018-.157a4.417,4.417,0,0,1,3.412-3.8,22.671,22.671,0,0,1,10.332.014,4.41,4.41,0,0,1,3.366,3.582l.076.468A2.15,2.15,0,0,0,36.536,14.7l.982-5.057A3.472,3.472,0,0,0,34.11,5.512a2.045,2.045,0,0,1-1.645-.834l-.684-.931C30.591,2.122,28.514,1.8,27.048,1.8,26.8,1.8,26.576,1.811,26.372,1.824ZM42.72,51.776a.911.911,0,0,1-.261-.639.921.921,0,0,1,.261-.63.933.933,0,0,1,1.278,0,.906.906,0,0,1,.261.63.9.9,0,0,1-1.539.639Zm-26.55-5.6h0ZM26.542,33.736h0Z" fill="#fff"/>
</svg>
