<svg xmlns="http://www.w3.org/2000/svg" width="48.172" height="60.022" viewBox="0 0 48.172 60.022">
  <path id="Union_12" data-name="Union 12" d="M23.816,59.522l-.071-.013A91.182,91.182,0,0,1,.454,56.429h0A.647.647,0,0,1,0,55.769c0-.2.187-16.906,13.127-23.007a.641.641,0,0,1,.188-.064,24.987,24.987,0,0,1,10.5-2.1A24.886,24.886,0,0,1,34.374,32.73a.546.546,0,0,1,.162.058c12.94,6.1,13.134,22.807,13.134,23.007a.648.648,0,0,1-.485.647,90.964,90.964,0,0,1-23.291,3.08Zm.647-8.714v7.421a89.734,89.734,0,0,0,21.893-2.918c-.1-2.789-1.191-15.845-11.931-21.163ZM1.3,55.336a90.021,90.021,0,0,0,21.868,2.892V50.807L13.2,34.155h0C2.465,39.465,1.378,52.522,1.3,55.336ZM14.382,33.643l9.433,15.721,9.427-15.721a24.425,24.425,0,0,0-9.427-1.753l-.335,0A24.461,24.461,0,0,0,14.382,33.643Zm16.609,17.19a.647.647,0,0,1-.647-.647v-3.6a.647.647,0,0,1,.647-.647h9.168a.647.647,0,0,1,.647.647v3.6a.647.647,0,0,1-.647.647Zm.647-1.294h7.874v-2.31H31.638ZM7.428,50.833a.647.647,0,0,1-.647-.647v-3.6a.647.647,0,0,1,.647-.647h9.161a.647.647,0,0,1,.647.647v3.6a.647.647,0,0,1-.647.647Zm.647-1.294h7.867v-2.31H8.075Zm9.261-21.914a13.379,13.379,0,0,1-6.88-10.984h0l-.252-.084a.647.647,0,0,1-.433-.647h0L11.187,1.87a.647.647,0,0,1,.576-.576L23.745,0h.142L35.869,1.294h0a.647.647,0,0,1,.576.576L37.862,15.9a.646.646,0,0,1-.427.647l-.259.091A13.38,13.38,0,0,1,17.336,27.625Zm-1.644-2.751a12.111,12.111,0,0,0,8.124,3.141h0a12.111,12.111,0,0,0,12.04-10.94l-.99.291-.893.246a42.369,42.369,0,0,1-5.823,1.074h0l-.951.1c-1.126.1-2.258.142-3.39.142s-2.258-.045-3.377-.142l-.647-.064h-.3a42.593,42.593,0,0,1-5.771-1.067l-.964-.265-.977-.291A12.109,12.109,0,0,0,15.691,24.874ZM12.4,2.556l-1.294,13c.705.227,1.352.434,2,.615l.854.24a41.084,41.084,0,0,0,5.629,1.048h.3a6.047,6.047,0,0,0,.647.058,38.782,38.782,0,0,0,6.547,0h0l.938-.091A41.6,41.6,0,0,0,33.6,16.395l.925-.252c.647-.175,1.313-.382,2-.615l-1.313-13L23.815,1.294Zm9.693,13.153a.647.647,0,0,1-.647-.647V12.254H18.639a.646.646,0,0,1-.647-.647V8.152a.647.647,0,0,1,.647-.647h2.8V4.7a.647.647,0,0,1,.647-.647h3.455a.647.647,0,0,1,.647.647V7.5h2.8a.646.646,0,0,1,.647.647v3.455a.646.646,0,0,1-.647.647H26.2v2.808a.647.647,0,0,1-.647.647ZM19.287,10.96h2.8a.646.646,0,0,1,.647.647v2.808H24.9V11.607a.647.647,0,0,1,.647-.647h2.8V8.8H25.549a.647.647,0,0,1-.647-.647V5.344H22.741V8.152a.647.647,0,0,1-.647.647H19.287Z" transform="translate(0.251 0.25)" fill="#cfcfcf" stroke="#cfcfcf" stroke-width="0.5"/>
</svg>
